<?xml version="1.0" standalone="no"?>
<!DOCTYPE svg PUBLIC "-//W3C//DTD SVG 20010904//EN"
 "http://www.w3.org/TR/2001/REC-SVG-20010904/DTD/svg10.dtd">
<svg version="1.0" xmlns="http://www.w3.org/2000/svg"
 width="700.000000pt" height="700.000000pt" viewBox="0 0 700.000000 700.000000"
 preserveAspectRatio="xMidYMid meet">
<metadata>
Created by potrace 1.14, written by Peter Selinger 2001-2017
</metadata>
<g transform="translate(0.000000,700.000000) scale(0.100000,-0.100000)"
fill="#000000" stroke="none">
<path d="M3417 6344 c-1 -1 -52 -4 -114 -8 -61 -4 -119 -8 -130 -10 -10 -2
-40 -7 -68 -10 -79 -10 -121 -18 -272 -50 -34 -7 -266 -76 -288 -85 -11 -5
-67 -28 -125 -51 -570 -233 -1035 -634 -1367 -1180 -60 -98 -155 -292 -200
-410 -54 -137 -122 -367 -139 -465 -64 -367 -73 -639 -33 -950 13 -97 53 -300
75 -375 28 -96 66 -214 79 -245 7 -16 23 -57 36 -90 25 -66 131 -280 179 -363
136 -233 377 -519 595 -707 432 -372 982 -612 1535 -670 30 -3 77 -8 103 -11
111 -13 406 -6 537 11 19 3 53 7 75 10 41 4 108 15 135 20 593 123 1075 379
1481 787 406 408 687 938 783 1478 3 19 8 44 10 56 2 12 7 45 11 74 4 29 8 62
11 73 21 111 20 549 -2 660 -2 12 -7 44 -10 72 -3 27 -10 72 -15 100 -6 27
-12 61 -15 75 -16 87 -79 317 -103 375 -5 11 -28 67 -51 125 -145 353 -351
662 -624 934 -124 123 -160 154 -301 260 -349 262 -729 432 -1150 515 -55 11
-124 23 -154 26 -30 4 -61 8 -70 10 -54 10 -405 26 -414 19z m-52 -492 c9 -26
25 -69 35 -97 10 -27 32 -88 49 -135 100 -284 144 -409 157 -440 39 -101 217
-611 213 -614 -3 -3 -421 72 -609 109 -14 3 -45 8 -70 11 -25 3 -48 8 -51 10
-3 1 -32 8 -65 13 -124 21 -180 31 -204 36 -33 7 -170 31 -277 50 -49 9 -133
24 -188 35 -55 10 -113 21 -130 24 -16 3 -55 9 -85 15 -30 5 -71 12 -90 15
-19 4 -46 9 -60 11 -94 19 -364 67 -377 68 -21 1 -16 11 48 88 297 358 745
645 1199 768 107 29 254 58 335 66 39 4 71 8 73 9 1 2 19 3 41 4 37 2 39 0 56
-46z m625 3 c63 -14 126 -28 138 -31 104 -22 324 -109 472 -185 311 -159 601
-402 810 -680 50 -66 90 -123 90 -127 0 -4 -12 -20 -28 -37 -15 -16 -69 -79
-121 -140 -51 -60 -103 -121 -115 -135 -12 -14 -68 -81 -126 -150 -57 -69
-107 -127 -110 -130 -3 -3 -41 -48 -85 -100 -44 -52 -84 -100 -90 -106 -5 -6
-19 -22 -30 -35 -58 -69 -191 -226 -202 -237 -11 -11 -14 -11 -18 0 -14 38
-98 277 -105 298 -5 14 -25 70 -45 125 -20 55 -51 143 -70 195 -33 96 -106
300 -150 420 -13 36 -85 238 -160 450 -75 212 -139 392 -142 400 -3 8 -20 56
-38 105 -18 50 -36 98 -40 108 -10 24 23 22 165 -8z m-2570 -1300 c19 -4 71
-13 115 -21 44 -8 129 -24 188 -34 60 -11 116 -21 125 -24 9 -3 35 -7 57 -11
22 -3 114 -19 205 -36 91 -16 201 -36 245 -44 44 -8 91 -17 105 -20 14 -3 54
-10 89 -16 36 -5 67 -11 70 -13 3 -2 29 -7 56 -11 28 -3 53 -9 57 -13 4 -4
-17 -34 -45 -68 -29 -33 -72 -85 -97 -114 -25 -30 -63 -75 -85 -100 -22 -26
-60 -70 -85 -100 -25 -29 -50 -58 -55 -64 -6 -6 -33 -38 -60 -71 -28 -33 -54
-65 -60 -71 -18 -20 -102 -118 -166 -195 -79 -93 -266 -315 -295 -349 -12 -14
-68 -79 -124 -145 -56 -66 -114 -134 -129 -150 -14 -17 -48 -57 -75 -90 -27
-33 -54 -64 -60 -70 -6 -5 -34 -38 -61 -72 -28 -35 -52 -63 -55 -63 -21 0
-126 347 -145 480 -4 25 -11 66 -15 92 -22 112 -29 350 -17 518 19 254 82 517
181 754 52 122 62 139 85 132 9 -3 32 -8 51 -11z m4328 -197 c47 -126 102
-324 116 -418 8 -57 17 -111 22 -134 16 -84 22 -351 10 -491 -21 -258 -73
-479 -167 -715 -59 -147 -74 -173 -97 -166 -9 3 -33 8 -52 11 -19 3 -80 15
-135 25 -55 10 -116 21 -135 24 -19 3 -46 8 -60 11 -52 11 -77 15 -160 30 -47
8 -96 17 -110 20 -14 3 -63 12 -110 20 -47 8 -96 17 -110 20 -14 3 -99 18
-190 35 -91 17 -174 32 -185 34 -74 14 -111 20 -117 18 -16 -4 -7 14 20 44 15
17 112 132 217 255 104 123 199 235 212 249 12 14 117 138 233 275 117 138
222 261 233 275 12 14 58 68 102 120 44 52 85 100 90 106 6 6 30 35 55 64 25
30 63 75 85 100 42 49 106 126 165 196 19 24 38 43 42 43 4 1 15 -23 26 -51z
m-2398 -157 c465 -82 636 -115 642 -120 8 -7 258 -698 258 -713 0 -8 -201
-248 -447 -536 -51 -59 -28 -57 -218 -21 -55 10 -111 20 -125 23 -14 2 -63 11
-110 20 -47 8 -101 18 -120 21 -93 17 -146 26 -160 30 -8 2 -25 4 -38 4 -15 1
-27 11 -37 34 -22 50 -245 678 -245 691 0 6 28 43 61 81 34 39 71 81 83 95 11
14 46 55 76 90 30 36 57 67 60 70 5 5 85 101 125 149 26 31 87 101 89 101 0 0
48 -9 106 -19z m-873 -1109 c25 -70 69 -194 98 -277 29 -82 72 -202 95 -265
23 -63 46 -126 50 -140 9 -27 85 -239 150 -420 23 -63 56 -158 74 -210 35 -98
88 -246 182 -504 29 -82 52 -151 50 -153 -7 -7 -156 19 -266 46 -319 81 -632
233 -890 434 -173 135 -369 342 -484 509 l-39 57 64 74 c35 40 84 97 109 127
25 30 113 134 195 231 83 97 212 250 289 340 76 90 159 188 185 218 25 30 52
63 60 74 18 25 19 23 78 -141z m823 -676 c47 -8 99 -18 115 -21 60 -11 488
-90 545 -100 19 -3 107 -19 195 -35 88 -16 171 -31 185 -34 33 -5 406 -73 445
-81 43 -8 131 -24 195 -35 30 -6 66 -12 80 -15 42 -9 192 -35 260 -47 78 -13
88 -20 63 -45 -10 -10 -30 -35 -45 -54 -33 -44 -194 -207 -268 -272 -329 -288
-762 -487 -1210 -556 -36 -6 -96 -13 -135 -16 -81 -8 -65 -28 -135 170 -23 66
-46 129 -51 140 -4 11 -31 85 -59 165 -28 80 -54 154 -59 165 -4 11 -16 43
-25 70 -10 28 -40 113 -68 190 -27 77 -56 160 -65 185 -8 25 -19 54 -24 65
-13 28 -59 167 -59 177 0 5 8 7 18 4 9 -3 55 -12 102 -20z"/>
</g>
</svg>
